<?xml version="1.0" encoding="UTF-8" standalone="no"?>
<!DOCTYPE svg PUBLIC "-//W3C//DTD SVG 1.1//EN"
 "http://www.w3.org/Graphics/SVG/1.1/DTD/svg11.dtd">
<!-- Generated by graphviz version 2.26.0 (20091210.2329)
 -->
<!-- Title: G Pages: 1 -->
<svg width="804pt" height="1100pt"
 viewBox="0.00 0.00 804.00 1100.00" xmlns="http://www.w3.org/2000/svg" xmlns:xlink="http://www.w3.org/1999/xlink">
<g id="graph1" class="graph" transform="scale(1 1) rotate(0) translate(4 1096)">
<title>G</title>
<polygon fill="white" stroke="white" points="-4,5 -4,-1096 801,-1096 801,5 -4,5"/>
<g id="graph2" class="cluster"><title>cluster_Global</title>
<polyline fill="none" stroke="gray" points="582,-8 776,-8 "/>
<path fill="none" stroke="gray" d="M776,-8C782,-8 788,-14 788,-20"/>
<polyline fill="none" stroke="gray" points="788,-20 788,-1072 "/>
<path fill="none" stroke="gray" d="M788,-1072C788,-1078 782,-1084 776,-1084"/>
<polyline fill="none" stroke="gray" points="776,-1084 582,-1084 "/>
<path fill="none" stroke="gray" d="M582,-1084C576,-1084 570,-1078 570,-1072"/>
<polyline fill="none" stroke="gray" points="570,-1072 570,-20 "/>
<path fill="none" stroke="gray" d="M570,-20C570,-14 576,-8 582,-8"/>
<text text-anchor="middle" x="679" y="-1070.1" font-family="Times Roman,serif" font-size="11.00" fill="gray">Global</text>
</g>
<g id="graph3" class="cluster"><title>cluster_\GeekyHouse</title>
<polyline fill="none" stroke="gray" points="590,-60 768,-60 "/>
<path fill="none" stroke="gray" d="M768,-60C774,-60 780,-66 780,-72"/>
<polyline fill="none" stroke="gray" points="780,-72 780,-1041 "/>
<path fill="none" stroke="gray" d="M780,-1041C780,-1047 774,-1053 768,-1053"/>
<polyline fill="none" stroke="gray" points="768,-1053 590,-1053 "/>
<path fill="none" stroke="gray" d="M590,-1053C584,-1053 578,-1047 578,-1041"/>
<polyline fill="none" stroke="gray" points="578,-1041 578,-72 "/>
<path fill="none" stroke="gray" d="M578,-72C578,-66 584,-60 590,-60"/>
<text text-anchor="middle" x="679" y="-1039.1" font-family="Times Roman,serif" font-size="11.00" fill="gray">GeekyHouse</text>
</g>
<g id="graph4" class="cluster"><title>cluster_\GeekyHouse\ExternalTrackingBundle</title>
<polyline fill="none" stroke="gray" points="598,-68 760,-68 "/>
<path fill="none" stroke="gray" d="M760,-68C766,-68 772,-74 772,-80"/>
<polyline fill="none" stroke="gray" points="772,-80 772,-1010 "/>
<path fill="none" stroke="gray" d="M772,-1010C772,-1016 766,-1022 760,-1022"/>
<polyline fill="none" stroke="gray" points="760,-1022 598,-1022 "/>
<path fill="none" stroke="gray" d="M598,-1022C592,-1022 586,-1016 586,-1010"/>
<polyline fill="none" stroke="gray" points="586,-1010 586,-80 "/>
<path fill="none" stroke="gray" d="M586,-80C586,-74 592,-68 598,-68"/>
<text text-anchor="middle" x="679" y="-1008.1" font-family="Times Roman,serif" font-size="11.00" fill="gray">ExternalTrackingBundle</text>
</g>
<g id="graph5" class="cluster"><title>cluster_\GeekyHouse\ExternalTrackingBundle\Service</title>
<polyline fill="none" stroke="gray" points="616,-916 742,-916 "/>
<path fill="none" stroke="gray" d="M742,-916C748,-916 754,-922 754,-928"/>
<polyline fill="none" stroke="gray" points="754,-928 754,-979 "/>
<path fill="none" stroke="gray" d="M754,-979C754,-985 748,-991 742,-991"/>
<polyline fill="none" stroke="gray" points="742,-991 616,-991 "/>
<path fill="none" stroke="gray" d="M616,-991C610,-991 604,-985 604,-979"/>
<polyline fill="none" stroke="gray" points="604,-979 604,-928 "/>
<path fill="none" stroke="gray" d="M604,-928C604,-922 610,-916 616,-916"/>
<text text-anchor="middle" x="679" y="-977.1" font-family="Times Roman,serif" font-size="11.00" fill="gray">Service</text>
</g>
<g id="graph6" class="cluster"><title>cluster_\GeekyHouse\ExternalTrackingBundle\Tests</title>
<polyline fill="none" stroke="gray" points="623,-462 735,-462 "/>
<path fill="none" stroke="gray" d="M735,-462C741,-462 747,-468 747,-474"/>
<polyline fill="none" stroke="gray" points="747,-474 747,-813 "/>
<path fill="none" stroke="gray" d="M747,-813C747,-819 741,-825 735,-825"/>
<polyline fill="none" stroke="gray" points="735,-825 623,-825 "/>
<path fill="none" stroke="gray" d="M623,-825C617,-825 611,-819 611,-813"/>
<polyline fill="none" stroke="gray" points="611,-813 611,-474 "/>
<path fill="none" stroke="gray" d="M611,-474C611,-468 617,-462 623,-462"/>
<text text-anchor="middle" x="679" y="-811.1" font-family="Times Roman,serif" font-size="11.00" fill="gray">Tests</text>
</g>
<g id="graph7" class="cluster"><title>cluster_\GeekyHouse\ExternalTrackingBundle\Tests\Controller</title>
<polyline fill="none" stroke="gray" points="631,-514 727,-514 "/>
<path fill="none" stroke="gray" d="M727,-514C733,-514 739,-520 739,-526"/>
<polyline fill="none" stroke="gray" points="739,-526 739,-782 "/>
<path fill="none" stroke="gray" d="M739,-782C739,-788 733,-794 727,-794"/>
<polyline fill="none" stroke="gray" points="727,-794 631,-794 "/>
<path fill="none" stroke="gray" d="M631,-794C625,-794 619,-788 619,-782"/>
<polyline fill="none" stroke="gray" points="619,-782 619,-526 "/>
<path fill="none" stroke="gray" d="M619,-526C619,-520 625,-514 631,-514"/>
<text text-anchor="middle" x="679" y="-780.1" font-family="Times Roman,serif" font-size="11.00" fill="gray">Controller</text>
</g>
<g id="graph8" class="cluster"><title>cluster_\GeekyHouse\ExternalTrackingBundle\Tests\Controller\Service</title>
<polyline fill="none" stroke="gray" points="647,-688 711,-688 "/>
<path fill="none" stroke="gray" d="M711,-688C717,-688 723,-694 723,-700"/>
<polyline fill="none" stroke="gray" points="723,-700 723,-751 "/>
<path fill="none" stroke="gray" d="M723,-751C723,-757 717,-763 711,-763"/>
<polyline fill="none" stroke="gray" points="711,-763 647,-763 "/>
<path fill="none" stroke="gray" d="M647,-763C641,-763 635,-757 635,-751"/>
<polyline fill="none" stroke="gray" points="635,-751 635,-700 "/>
<path fill="none" stroke="gray" d="M635,-700C635,-694 641,-688 647,-688"/>
<text text-anchor="middle" x="679" y="-749.1" font-family="Times Roman,serif" font-size="11.00" fill="gray">Service</text>
</g>
<g id="graph9" class="cluster"><title>cluster_\GeekyHouse\ExternalTrackingBundle\Tests\Controller\Controller</title>
<polyline fill="none" stroke="gray" points="640,-605 718,-605 "/>
<path fill="none" stroke="gray" d="M718,-605C724,-605 730,-611 730,-617"/>
<polyline fill="none" stroke="gray" points="730,-617 730,-668 "/>
<path fill="none" stroke="gray" d="M730,-668C730,-674 724,-680 718,-680"/>
<polyline fill="none" stroke="gray" points="718,-680 640,-680 "/>
<path fill="none" stroke="gray" d="M640,-680C634,-680 628,-674 628,-668"/>
<polyline fill="none" stroke="gray" points="628,-668 628,-617 "/>
<path fill="none" stroke="gray" d="M628,-617C628,-611 634,-605 640,-605"/>
<text text-anchor="middle" x="679" y="-666.1" font-family="Times Roman,serif" font-size="11.00" fill="gray">Controller</text>
</g>
<g id="graph10" class="cluster"><title>cluster_\GeekyHouse\ExternalTrackingBundle\Tests\Controller\EventListener</title>
<polyline fill="none" stroke="gray" points="639,-522 719,-522 "/>
<path fill="none" stroke="gray" d="M719,-522C725,-522 731,-528 731,-534"/>
<polyline fill="none" stroke="gray" points="731,-534 731,-585 "/>
<path fill="none" stroke="gray" d="M731,-585C731,-591 725,-597 719,-597"/>
<polyline fill="none" stroke="gray" points="719,-597 639,-597 "/>
<path fill="none" stroke="gray" d="M639,-597C633,-597 627,-591 627,-585"/>
<polyline fill="none" stroke="gray" points="627,-585 627,-534 "/>
<path fill="none" stroke="gray" d="M627,-534C627,-528 633,-522 639,-522"/>
<text text-anchor="middle" x="679" y="-583.1" font-family="Times Roman,serif" font-size="11.00" fill="gray">EventListener</text>
</g>
<g id="graph11" class="cluster"><title>cluster_\GeekyHouse\ExternalTrackingBundle\DependencyInjection</title>
<polyline fill="none" stroke="gray" points="614,-325 744,-325 "/>
<path fill="none" stroke="gray" d="M744,-325C750,-325 756,-331 756,-337"/>
<polyline fill="none" stroke="gray" points="756,-337 756,-442 "/>
<path fill="none" stroke="gray" d="M756,-442C756,-448 750,-454 744,-454"/>
<polyline fill="none" stroke="gray" points="744,-454 614,-454 "/>
<path fill="none" stroke="gray" d="M614,-454C608,-454 602,-448 602,-442"/>
<polyline fill="none" stroke="gray" points="602,-442 602,-337 "/>
<path fill="none" stroke="gray" d="M602,-337C602,-331 608,-325 614,-325"/>
<text text-anchor="middle" x="679" y="-440.1" font-family="Times Roman,serif" font-size="11.00" fill="gray">DependencyInjection</text>
</g>
<g id="graph12" class="cluster"><title>cluster_\GeekyHouse\ExternalTrackingBundle\EventListener</title>
<polyline fill="none" stroke="gray" points="638,-833 720,-833 "/>
<path fill="none" stroke="gray" d="M720,-833C726,-833 732,-839 732,-845"/>
<polyline fill="none" stroke="gray" points="732,-845 732,-896 "/>
<path fill="none" stroke="gray" d="M732,-896C732,-902 726,-908 720,-908"/>
<polyline fill="none" stroke="gray" points="720,-908 638,-908 "/>
<path fill="none" stroke="gray" d="M638,-908C632,-908 626,-902 626,-896"/>
<polyline fill="none" stroke="gray" points="626,-896 626,-845 "/>
<path fill="none" stroke="gray" d="M626,-845C626,-839 632,-833 638,-833"/>
<text text-anchor="middle" x="679" y="-894.1" font-family="Times Roman,serif" font-size="11.00" fill="gray">EventListener</text>
</g>
<g id="graph13" class="cluster"><title>cluster_\GeekyHouse\ExternalTrackingBundle\Event</title>
<polyline fill="none" stroke="gray" points="623,-242 735,-242 "/>
<path fill="none" stroke="gray" d="M735,-242C741,-242 747,-248 747,-254"/>
<polyline fill="none" stroke="gray" points="747,-254 747,-305 "/>
<path fill="none" stroke="gray" d="M747,-305C747,-311 741,-317 735,-317"/>
<polyline fill="none" stroke="gray" points="735,-317 623,-317 "/>
<path fill="none" stroke="gray" d="M623,-317C617,-317 611,-311 611,-305"/>
<polyline fill="none" stroke="gray" points="611,-305 611,-254 "/>
<path fill="none" stroke="gray" d="M611,-254C611,-248 617,-242 623,-242"/>
<text text-anchor="middle" x="679" y="-303.1" font-family="Times Roman,serif" font-size="11.00" fill="gray">Event</text>
</g>
<g id="graph14" class="cluster"><title>cluster_\GeekyHouse\ExternalTrackingBundle\Twig</title>
<polyline fill="none" stroke="gray" points="606,-120 752,-120 "/>
<path fill="none" stroke="gray" d="M752,-120C758,-120 764,-126 764,-132"/>
<polyline fill="none" stroke="gray" points="764,-132 764,-222 "/>
<path fill="none" stroke="gray" d="M764,-222C764,-228 758,-234 752,-234"/>
<polyline fill="none" stroke="gray" points="752,-234 606,-234 "/>
<path fill="none" stroke="gray" d="M606,-234C600,-234 594,-228 594,-222"/>
<polyline fill="none" stroke="gray" points="594,-222 594,-132 "/>
<path fill="none" stroke="gray" d="M594,-132C594,-126 600,-120 606,-120"/>
<text text-anchor="middle" x="679" y="-220.1" font-family="Times Roman,serif" font-size="11.00" fill="gray">Twig</text>
</g>
<g id="graph15" class="cluster"><title>cluster_\GeekyHouse\ExternalTrackingBundle\Twig\Extension</title>
<polyline fill="none" stroke="gray" points="614,-128 744,-128 "/>
<path fill="none" stroke="gray" d="M744,-128C750,-128 756,-134 756,-140"/>
<polyline fill="none" stroke="gray" points="756,-140 756,-191 "/>
<path fill="none" stroke="gray" d="M756,-191C756,-197 750,-203 744,-203"/>
<polyline fill="none" stroke="gray" points="744,-203 614,-203 "/>
<path fill="none" stroke="gray" d="M614,-203C608,-203 602,-197 602,-191"/>
<polyline fill="none" stroke="gray" points="602,-191 602,-140 "/>
<path fill="none" stroke="gray" d="M602,-140C602,-134 608,-128 614,-128"/>
<text text-anchor="middle" x="679" y="-189.1" font-family="Times Roman,serif" font-size="11.00" fill="gray">Extension</text>
</g>
<!-- \\GeekyHouse\\ExternalTrackingBundle\\Service\\ExternalTrackingManager -->
<g id="node5" class="node"><title>\\GeekyHouse\\ExternalTrackingBundle\\Service\\ExternalTrackingManager</title>
<polygon fill="none" stroke="black" points="746,-960 612,-960 612,-924 746,-924 746,-960"/>
<text text-anchor="middle" x="679" y="-939.6" font-family="Times Roman,serif" font-size="11.00">ExternalTrackingManager</text>
</g>
<!-- \\GeekyHouse\\ExternalTrackingBundle\\Tests\\Controller\\Service\\TestTracker -->
<g id="node9" class="node"><title>\\GeekyHouse\\ExternalTrackingBundle\\Tests\\Controller\\Service\\TestTracker</title>
<polygon fill="none" stroke="black" points="714,-732 644,-732 644,-696 714,-696 714,-732"/>
<text text-anchor="middle" x="679" y="-711.6" font-family="Times Roman,serif" font-size="11.00">TestTracker</text>
</g>
<!-- \\GeekyHouse\\ExternalTrackingBundle\\Tests\\Controller\\Controller\\IndexController -->
<g id="node11" class="node"><title>\\GeekyHouse\\ExternalTrackingBundle\\Tests\\Controller\\Controller\\IndexController</title>
<polygon fill="none" stroke="black" points="722,-649 636,-649 636,-613 722,-613 722,-649"/>
<text text-anchor="middle" x="679" y="-628.6" font-family="Times Roman,serif" font-size="11.00">IndexController</text>
</g>
<!-- \\Symfony\\Bundle\\FrameworkBundle\\Controller\\Controller -->
<g id="node32" class="node"><title>\\Symfony\\Bundle\\FrameworkBundle\\Controller\\Controller</title>
<ellipse fill="none" stroke="black" cx="269" cy="-631" rx="239.002" ry="19.0919"/>
<text text-anchor="middle" x="269" y="-627.9" font-family="Times Roman,serif" font-size="14.00" fill="gray">\Symfony\Bundle\FrameworkBundle\Controller\Controller</text>
</g>
<!-- \\GeekyHouse\\ExternalTrackingBundle\\Tests\\Controller\\Controller\\IndexController&#45;&gt;\\Symfony\\Bundle\\FrameworkBundle\\Controller\\Controller -->
<g id="edge20" class="edge"><title>\\GeekyHouse\\ExternalTrackingBundle\\Tests\\Controller\\Controller\\IndexController&#45;&gt;\\Symfony\\Bundle\\FrameworkBundle\\Controller\\Controller</title>
<path fill="none" stroke="black" d="M635.898,-631C606.113,-631 563.809,-631 518.456,-631"/>
<polygon fill="none" stroke="black" points="518.427,-627.5 508.427,-631 518.427,-634.5 518.427,-627.5"/>
</g>
<!-- \\GeekyHouse\\ExternalTrackingBundle\\Tests\\Controller\\EventListener\\CustomListener -->
<g id="node13" class="node"><title>\\GeekyHouse\\ExternalTrackingBundle\\Tests\\Controller\\EventListener\\CustomListener</title>
<polygon fill="none" stroke="black" points="722,-566 636,-566 636,-530 722,-530 722,-566"/>
<text text-anchor="middle" x="679" y="-545.6" font-family="Times Roman,serif" font-size="11.00">CustomListener</text>
</g>
<!-- \\Symfony\\Component\\EventDispatcher\\EventSubscriberInterface -->
<g id="node34" class="node"><title>\\Symfony\\Component\\EventDispatcher\\EventSubscriberInterface</title>
<ellipse fill="none" stroke="black" cx="269" cy="-773" rx="263.751" ry="19.0919"/>
<text text-anchor="middle" x="269" y="-769.9" font-family="Times Roman,serif" font-size="14.00" fill="gray">\Symfony\Component\EventDispatcher\EventSubscriberInterface</text>
</g>
<!-- \\GeekyHouse\\ExternalTrackingBundle\\Tests\\Controller\\EventListener\\CustomListener&#45;&gt;\\Symfony\\Component\\EventDispatcher\\EventSubscriberInterface -->
<g id="edge22" class="edge"><title>\\GeekyHouse\\ExternalTrackingBundle\\Tests\\Controller\\EventListener\\CustomListener&#45;&gt;\\Symfony\\Component\\EventDispatcher\\EventSubscriberInterface</title>
<path fill="none" stroke="black" stroke-dasharray="1,5" d="M635.436,-562.044C613.823,-570.667 588.462,-583.467 570,-601 548.652,-621.274 559.865,-639.285 538,-659 486.633,-705.317 413.665,-734.636 356.683,-751.925"/>
<polygon fill="none" stroke="black" points="355.555,-748.608 346.961,-754.805 357.544,-755.32 355.555,-748.608"/>
</g>
<!-- \\GeekyHouse\\ExternalTrackingBundle\\Tests\\ExternalTrackingTest -->
<g id="node14" class="node"><title>\\GeekyHouse\\ExternalTrackingBundle\\Tests\\ExternalTrackingTest</title>
<polygon fill="none" stroke="black" points="735,-506 623,-506 623,-470 735,-470 735,-506"/>
<text text-anchor="middle" x="679" y="-485.6" font-family="Times Roman,serif" font-size="11.00">ExternalTrackingTest</text>
</g>
<!-- \\Symfony\\Bundle\\FrameworkBundle\\Test\\WebTestCase -->
<g id="node36" class="node"><title>\\Symfony\\Bundle\\FrameworkBundle\\Test\\WebTestCase</title>
<ellipse fill="none" stroke="black" cx="269" cy="-488" rx="230.017" ry="19.0919"/>
<text text-anchor="middle" x="269" y="-484.9" font-family="Times Roman,serif" font-size="14.00" fill="gray">\Symfony\Bundle\FrameworkBundle\Test\WebTestCase</text>
</g>
<!-- \\GeekyHouse\\ExternalTrackingBundle\\Tests\\ExternalTrackingTest&#45;&gt;\\Symfony\\Bundle\\FrameworkBundle\\Test\\WebTestCase -->
<g id="edge24" class="edge"><title>\\GeekyHouse\\ExternalTrackingBundle\\Tests\\ExternalTrackingTest&#45;&gt;\\Symfony\\Bundle\\FrameworkBundle\\Test\\WebTestCase</title>
<path fill="none" stroke="black" d="M622.422,-488C591.916,-488 551.959,-488 509.923,-488"/>
<polygon fill="none" stroke="black" points="509.776,-484.5 499.776,-488 509.776,-491.5 509.776,-484.5"/>
</g>
<!-- \\GeekyHouse\\ExternalTrackingBundle\\DependencyInjection\\ExternalTrackingExtension -->
<g id="node16" class="node"><title>\\GeekyHouse\\ExternalTrackingBundle\\DependencyInjection\\ExternalTrackingExtension</title>
<polygon fill="none" stroke="black" points="747,-423 611,-423 611,-387 747,-387 747,-423"/>
<text text-anchor="middle" x="679" y="-402.6" font-family="Times Roman,serif" font-size="11.00">ExternalTrackingExtension</text>
</g>
<!-- \\Symfony\\Component\\HttpKernel\\DependencyInjection\\Extension -->
<g id="node38" class="node"><title>\\Symfony\\Component\\HttpKernel\\DependencyInjection\\Extension</title>
<ellipse fill="none" stroke="black" cx="269" cy="-406" rx="268.2" ry="19.0919"/>
<text text-anchor="middle" x="269" y="-402.9" font-family="Times Roman,serif" font-size="14.00" fill="gray">\Symfony\Component\HttpKernel\DependencyInjection\Extension</text>
</g>
<!-- \\GeekyHouse\\ExternalTrackingBundle\\DependencyInjection\\ExternalTrackingExtension&#45;&gt;\\Symfony\\Component\\HttpKernel\\DependencyInjection\\Extension -->
<g id="edge26" class="edge"><title>\\GeekyHouse\\ExternalTrackingBundle\\DependencyInjection\\ExternalTrackingExtension&#45;&gt;\\Symfony\\Component\\HttpKernel\\DependencyInjection\\Extension</title>
<path fill="none" stroke="black" d="M610.375,-405.167C591.808,-405.213 570.51,-405.265 547.819,-405.32"/>
<polygon fill="none" stroke="black" points="547.649,-401.82 537.658,-405.345 547.667,-408.82 547.649,-401.82"/>
</g>
<!-- \\GeekyHouse\\ExternalTrackingBundle\\DependencyInjection\\Configuration -->
<g id="node17" class="node"><title>\\GeekyHouse\\ExternalTrackingBundle\\DependencyInjection\\Configuration</title>
<polygon fill="none" stroke="black" points="717,-369 641,-369 641,-333 717,-333 717,-369"/>
<text text-anchor="middle" x="679" y="-348.6" font-family="Times Roman,serif" font-size="11.00">Configuration</text>
</g>
<!-- \\Symfony\\Component\\Config\\Definition\\ConfigurationInterface -->
<g id="node40" class="node"><title>\\Symfony\\Component\\Config\\Definition\\ConfigurationInterface</title>
<ellipse fill="none" stroke="black" cx="269" cy="-350" rx="258.801" ry="19.0919"/>
<text text-anchor="middle" x="269" y="-346.9" font-family="Times Roman,serif" font-size="14.00" fill="gray">\Symfony\Component\Config\Definition\ConfigurationInterface</text>
</g>
<!-- \\GeekyHouse\\ExternalTrackingBundle\\DependencyInjection\\Configuration&#45;&gt;\\Symfony\\Component\\Config\\Definition\\ConfigurationInterface -->
<g id="edge28" class="edge"><title>\\GeekyHouse\\ExternalTrackingBundle\\DependencyInjection\\Configuration&#45;&gt;\\Symfony\\Component\\Config\\Definition\\ConfigurationInterface</title>
<path fill="none" stroke="black" stroke-dasharray="1,5" d="M640.428,-350.906C614.7,-350.843 578.342,-350.754 538.347,-350.657"/>
<polygon fill="none" stroke="black" points="538.114,-347.156 528.105,-350.632 538.096,-354.156 538.114,-347.156"/>
</g>
<!-- \\GeekyHouse\\ExternalTrackingBundle\\EventListener\\RequestListener -->
<g id="node19" class="node"><title>\\GeekyHouse\\ExternalTrackingBundle\\EventListener\\RequestListener</title>
<polygon fill="none" stroke="black" points="723,-877 635,-877 635,-841 723,-841 723,-877"/>
<text text-anchor="middle" x="679" y="-856.6" font-family="Times Roman,serif" font-size="11.00">RequestListener</text>
</g>
<!-- \\GeekyHouse\\ExternalTrackingBundle\\EventListener\\RequestListener&#45;&gt;\\Symfony\\Component\\EventDispatcher\\EventSubscriberInterface -->
<g id="edge30" class="edge"><title>\\GeekyHouse\\ExternalTrackingBundle\\EventListener\\RequestListener&#45;&gt;\\Symfony\\Component\\EventDispatcher\\EventSubscriberInterface</title>
<path fill="none" stroke="black" stroke-dasharray="1,5" d="M634.342,-849.633C570.058,-836.149 449.848,-810.934 364.903,-793.116"/>
<polygon fill="none" stroke="black" points="365.49,-789.663 354.985,-791.036 364.053,-796.514 365.49,-789.663"/>
</g>
<!-- \\GeekyHouse\\ExternalTrackingBundle\\Event\\ExternalTrackingEvent -->
<g id="node21" class="node"><title>\\GeekyHouse\\ExternalTrackingBundle\\Event\\ExternalTrackingEvent</title>
<polygon fill="none" stroke="black" points="738,-286 620,-286 620,-250 738,-250 738,-286"/>
<text text-anchor="middle" x="679" y="-265.6" font-family="Times Roman,serif" font-size="11.00">ExternalTrackingEvent</text>
</g>
<!-- \\Symfony\\Component\\EventDispatcher\\Event -->
<g id="node43" class="node"><title>\\Symfony\\Component\\EventDispatcher\\Event</title>
<ellipse fill="none" stroke="black" cx="269" cy="-268" rx="188.798" ry="19.0919"/>
<text text-anchor="middle" x="269" y="-264.9" font-family="Times Roman,serif" font-size="14.00" fill="gray">\Symfony\Component\EventDispatcher\Event</text>
</g>
<!-- \\GeekyHouse\\ExternalTrackingBundle\\Event\\ExternalTrackingEvent&#45;&gt;\\Symfony\\Component\\EventDispatcher\\Event -->
<g id="edge32" class="edge"><title>\\GeekyHouse\\ExternalTrackingBundle\\Event\\ExternalTrackingEvent&#45;&gt;\\Symfony\\Component\\EventDispatcher\\Event</title>
<path fill="none" stroke="black" d="M619.382,-268C579.134,-268 523.482,-268 468.373,-268"/>
<polygon fill="none" stroke="black" points="468.093,-264.5 458.093,-268 468.093,-271.5 468.093,-264.5"/>
</g>
<!-- \\GeekyHouse\\ExternalTrackingBundle\\Twig\\Extension\\ExternalTrackingExtension -->
<g id="node24" class="node"><title>\\GeekyHouse\\ExternalTrackingBundle\\Twig\\Extension\\ExternalTrackingExtension</title>
<polygon fill="none" stroke="black" points="747,-172 611,-172 611,-136 747,-136 747,-172"/>
<text text-anchor="middle" x="679" y="-151.6" font-family="Times Roman,serif" font-size="11.00">ExternalTrackingExtension</text>
</g>
<!-- \\Twig_Extension -->
<g id="node45" class="node"><title>\\Twig_Extension</title>
<ellipse fill="none" stroke="black" cx="269" cy="-154" rx="77.7817" ry="19.0919"/>
<text text-anchor="middle" x="269" y="-150.9" font-family="Times Roman,serif" font-size="14.00" fill="gray">\Twig_Extension</text>
</g>
<!-- \\GeekyHouse\\ExternalTrackingBundle\\Twig\\Extension\\ExternalTrackingExtension&#45;&gt;\\Twig_Extension -->
<g id="edge34" class="edge"><title>\\GeekyHouse\\ExternalTrackingBundle\\Twig\\Extension\\ExternalTrackingExtension&#45;&gt;\\Twig_Extension</title>
<path fill="none" stroke="black" d="M610.375,-154C540.889,-154 433.145,-154 357.324,-154"/>
<polygon fill="none" stroke="black" points="357.311,-150.5 347.311,-154 357.311,-157.5 357.311,-150.5"/>
</g>
<!-- \\GeekyHouse\\ExternalTrackingBundle\\ExternalTrackingBundle -->
<g id="node25" class="node"><title>\\GeekyHouse\\ExternalTrackingBundle\\ExternalTrackingBundle</title>
<polygon fill="none" stroke="black" points="741,-112 617,-112 617,-76 741,-76 741,-112"/>
<text text-anchor="middle" x="679" y="-91.6" font-family="Times Roman,serif" font-size="11.00">ExternalTrackingBundle</text>
</g>
<!-- \\Symfony\\Component\\HttpKernel\\Bundle\\Bundle -->
<g id="node28" class="node"><title>\\Symfony\\Component\\HttpKernel\\Bundle\\Bundle</title>
<ellipse fill="none" stroke="black" cx="269" cy="-94" rx="203.146" ry="19.0919"/>
<text text-anchor="middle" x="269" y="-90.9" font-family="Times Roman,serif" font-size="14.00" fill="gray">\Symfony\Component\HttpKernel\Bundle\Bundle</text>
</g>
<!-- \\GeekyHouse\\ExternalTrackingBundle\\ExternalTrackingBundle&#45;&gt;\\Symfony\\Component\\HttpKernel\\Bundle\\Bundle -->
<g id="edge16" class="edge"><title>\\GeekyHouse\\ExternalTrackingBundle\\ExternalTrackingBundle&#45;&gt;\\Symfony\\Component\\HttpKernel\\Bundle\\Bundle</title>
<path fill="none" stroke="black" d="M616.284,-94C579.872,-94 531.643,-94 482.75,-94"/>
<polygon fill="none" stroke="black" points="482.639,-90.5001 472.639,-94 482.639,-97.5001 482.639,-90.5001"/>
</g>
<!-- \\AppKernel -->
<g id="node26" class="node"><title>\\AppKernel</title>
<polygon fill="none" stroke="black" points="712,-52 646,-52 646,-16 712,-16 712,-52"/>
<text text-anchor="middle" x="679" y="-31.6" font-family="Times Roman,serif" font-size="11.00">AppKernel</text>
</g>
<!-- \\Symfony\\Component\\HttpKernel\\Kernel -->
<g id="node30" class="node"><title>\\Symfony\\Component\\HttpKernel\\Kernel</title>
<ellipse fill="none" stroke="black" cx="269" cy="-34" rx="171.827" ry="19.0919"/>
<text text-anchor="middle" x="269" y="-30.9" font-family="Times Roman,serif" font-size="14.00" fill="gray">\Symfony\Component\HttpKernel\Kernel</text>
</g>
<!-- \\AppKernel&#45;&gt;\\Symfony\\Component\\HttpKernel\\Kernel -->
<g id="edge18" class="edge"><title>\\AppKernel&#45;&gt;\\Symfony\\Component\\HttpKernel\\Kernel</title>
<path fill="none" stroke="black" d="M645.795,-34C603.008,-34 525.327,-34 451.567,-34"/>
<polygon fill="none" stroke="black" points="451.189,-30.5001 441.189,-34 451.189,-37.5001 451.189,-30.5001"/>
</g>
</g>
</svg>
